<?xml version="1.0" encoding="UTF-8" standalone="no"?>
<!DOCTYPE svg PUBLIC "-//W3C//DTD SVG 1.1//EN" "http://www.w3.org/Graphics/SVG/1.1/DTD/svg11.dtd">
<!-- Generated by Microsoft Visio, SVG Export Menu.svg Page-1 -->
<svg xmlns="http://www.w3.org/2000/svg" xmlns:xlink="http://www.w3.org/1999/xlink" xmlns:ev="http://www.w3.org/2001/xml-events"
		xmlns:v="http://schemas.microsoft.com/visio/2003/SVGExtensions/" width="2in" height="2in" viewBox="0 0 144 144"
		xml:space="preserve" color-interpolation-filters="sRGB" class="st4">
	<v:documentProperties v:langID="1033" v:viewMarkup="false">
		<v:userDefs>
			<v:ud v:nameU="msvNoAutoConnect" v:val="VT0(1):26"/>
		</v:userDefs>
	</v:documentProperties>

	<style type="text/css">
	<![CDATA[
		.st1 {visibility:visible}
		.st2 {fill:#000000;fill-opacity:0.2;filter:url(#filter_4);stroke:#000000;stroke-linecap:round;stroke-linejoin:round;stroke-opacity:0.2}
		.st3 {fill:url(#grad8-7);stroke:#1e77c8;stroke-linecap:round;stroke-linejoin:round;stroke-width:0.5}
		.st4 {fill:none;fill-rule:evenodd;font-size:12px;overflow:visible;stroke-linecap:square;stroke-miterlimit:3}
	]]>
	</style>

	<defs id="Patterns_And_Gradients">
		<pattern id="grad8-7" x="0" y="0" width="1" height="1" patternContentUnits="objectBoundingBox">
			<path d="M 0 0 L 1 0 L 1 1 z" style="fill:url(#grad0-8)"/>
			<path d="M 0 0 L 0 1 L 1 1 z" style="fill:url(#grad0-9)"/>
		</pattern>
		<linearGradient id="grad0-8" x1="0" y1="0" x2="1" y2="0" gradientTransform="rotate(270 0.5 0.5)">
			<stop offset="0.42" stop-color="#ffffff" stop-opacity="1"/>
			<stop offset="0.79" stop-color="#ecf1fc" stop-opacity="1"/>
			<stop offset="1" stop-color="#d9e3f9" stop-opacity="1"/>
		</linearGradient>
		<linearGradient id="grad0-9" x1="0" y1="0" x2="1" y2="0" gradientTransform="rotate(180 0.5 0.5)">
			<stop offset="0.42" stop-color="#ffffff" stop-opacity="1"/>
			<stop offset="0.79" stop-color="#ecf1fc" stop-opacity="1"/>
			<stop offset="1" stop-color="#d9e3f9" stop-opacity="1"/>
		</linearGradient>
	</defs>
	<defs id="Filters">
		<filter id="filter_4">
			<feGaussianBlur stdDeviation="4"/>
		</filter>
	</defs>
	<g v:mID="0" v:index="1" v:groupContext="foregroundPage">
		<v:userDefs>
			<v:ud v:nameU="msvThemeOrder" v:val="VT0(0):26"/>
		</v:userDefs>
		<title>Page-1</title>
		<v:pageProperties v:drawingScale="1" v:pageScale="1" v:drawingUnits="19" v:shadowOffsetX="9" v:shadowOffsetY="-9"/>
		<g id="shape1-1" v:mID="1" v:groupContext="shape" transform="translate(108,-504)">
			<title>Circle</title>
			<v:userDefs>
				<v:ud v:nameU="visVersion" v:val="VT0(15):26"/>
			</v:userDefs>
			<g id="shadow1-2" v:groupContext="shadow" v:shadowOffsetX="0" v:shadowOffsetY="-0" v:shadowType="2"
					v:shadowScale="0.310001" v:shadowAngle="-56.9997" transform="matrix(1,0,0.259988,0.16884,-37.4382,119.687)"
					class="st1">
				<path d="M0 90 A54 54 0 0 1 108 90 A54 54 0 1 1 0 90 Z" class="st2"/>
			</g>
			<path d="M0 90 A54 54 0 0 1 108 90 A54 54 0 1 1 0 90 Z" class="st3"/>
		</g>
		<g id="shape2-10" v:mID="2" v:groupContext="shape" transform="translate(0,-96.75)">
			<title>Circle.2</title>
			<v:userDefs>
				<v:ud v:nameU="visVersion" v:val="VT0(15):26"/>
			</v:userDefs>
			<g id="shadow2-11" v:groupContext="shadow" v:shadowOffsetX="0" v:shadowOffsetY="-0" v:shadowType="2"
					v:shadowScale="0.310001" v:shadowAngle="-56.9997" transform="matrix(1,0,0.259988,0.16884,-37.4382,119.687)"
					class="st1">
				<path d="M0 120.37 A23.625 23.625 0 0 1 47.25 120.37 A23.625 23.625 0 1 1 0 120.37 Z" class="st2"/>
			</g>
			<path d="M0 120.37 A23.625 23.625 0 0 1 47.25 120.37 A23.625 23.625 0 1 1 0 120.37 Z" class="st3"/>
		</g>
		<g id="shape3-16" v:mID="3" v:groupContext="shape" transform="translate(48.375,0)">
			<title>Circle.3</title>
			<v:userDefs>
				<v:ud v:nameU="visVersion" v:val="VT0(15):26"/>
			</v:userDefs>
			<g id="shadow3-17" v:groupContext="shadow" v:shadowOffsetX="0" v:shadowOffsetY="-0" v:shadowType="2"
					v:shadowScale="0.310001" v:shadowAngle="-56.9997" transform="matrix(1,0,0.259988,0.16884,-37.4382,119.687)"
					class="st1">
				<path d="M0 120.37 A23.625 23.625 0 0 1 47.25 120.37 A23.625 23.625 0 1 1 0 120.37 Z" class="st2"/>
			</g>
			<path d="M0 120.37 A23.625 23.625 0 0 1 47.25 120.37 A23.625 23.625 0 1 1 0 120.37 Z" class="st3"/>
		</g>
		<g id="shape4-22" v:mID="4" v:groupContext="shape" transform="translate(96.75,-48.375)">
			<title>Circle.4</title>
			<v:userDefs>
				<v:ud v:nameU="visVersion" v:val="VT0(15):26"/>
			</v:userDefs>
			<g id="shadow4-23" v:groupContext="shadow" v:shadowOffsetX="0" v:shadowOffsetY="-0" v:shadowType="2"
					v:shadowScale="0.310001" v:shadowAngle="-56.9997" transform="matrix(1,0,0.259988,0.16884,-37.4382,119.687)"
					class="st1">
				<path d="M0 120.37 A23.625 23.625 0 0 1 47.25 120.37 A23.625 23.625 0 1 1 0 120.37 Z" class="st2"/>
			</g>
			<path d="M0 120.37 A23.625 23.625 0 0 1 47.25 120.37 A23.625 23.625 0 1 1 0 120.37 Z" class="st3"/>
		</g>
		<g id="shape5-28" v:mID="5" v:groupContext="shape" transform="translate(48.375,-48.375)">
			<title>Circle.5</title>
			<v:userDefs>
				<v:ud v:nameU="visVersion" v:val="VT0(15):26"/>
			</v:userDefs>
			<g id="shadow5-29" v:groupContext="shadow" v:shadowOffsetX="0" v:shadowOffsetY="-0" v:shadowType="2"
					v:shadowScale="0.310001" v:shadowAngle="-56.9997" transform="matrix(1,0,0.259988,0.16884,-37.4382,119.687)"
					class="st1">
				<path d="M0 120.37 A23.625 23.625 0 0 1 47.25 120.37 A23.625 23.625 0 1 1 0 120.37 Z" class="st2"/>
			</g>
			<path d="M0 120.37 A23.625 23.625 0 0 1 47.25 120.37 A23.625 23.625 0 1 1 0 120.37 Z" class="st3"/>
		</g>
		<g id="shape6-34" v:mID="6" v:groupContext="shape">
			<title>Circle.6</title>
			<v:userDefs>
				<v:ud v:nameU="visVersion" v:val="VT0(15):26"/>
			</v:userDefs>
			<g id="shadow6-35" v:groupContext="shadow" v:shadowOffsetX="0" v:shadowOffsetY="-0" v:shadowType="2"
					v:shadowScale="0.310001" v:shadowAngle="-56.9997" transform="matrix(1,0,0.259988,0.16884,-37.4382,119.687)"
					class="st1">
				<path d="M0 120.37 A23.625 23.625 0 0 1 47.25 120.37 A23.625 23.625 0 1 1 0 120.37 Z" class="st2"/>
			</g>
			<path d="M0 120.37 A23.625 23.625 0 0 1 47.25 120.37 A23.625 23.625 0 1 1 0 120.37 Z" class="st3"/>
		</g>
		<g id="shape7-40" v:mID="7" v:groupContext="shape" transform="translate(96.75,0)">
			<title>Circle.7</title>
			<v:userDefs>
				<v:ud v:nameU="visVersion" v:val="VT0(15):26"/>
			</v:userDefs>
			<g id="shadow7-41" v:groupContext="shadow" v:shadowOffsetX="0" v:shadowOffsetY="-0" v:shadowType="2"
					v:shadowScale="0.310001" v:shadowAngle="-56.9997" transform="matrix(1,0,0.259988,0.16884,-37.4382,119.687)"
					class="st1">
				<path d="M0 120.37 A23.625 23.625 0 0 1 47.25 120.37 A23.625 23.625 0 1 1 0 120.37 Z" class="st2"/>
			</g>
			<path d="M0 120.37 A23.625 23.625 0 0 1 47.25 120.37 A23.625 23.625 0 1 1 0 120.37 Z" class="st3"/>
		</g>
		<g id="shape8-46" v:mID="8" v:groupContext="shape" transform="translate(0,-48.375)">
			<title>Circle.8</title>
			<v:userDefs>
				<v:ud v:nameU="visVersion" v:val="VT0(15):26"/>
			</v:userDefs>
			<g id="shadow8-47" v:groupContext="shadow" v:shadowOffsetX="0" v:shadowOffsetY="-0" v:shadowType="2"
					v:shadowScale="0.310001" v:shadowAngle="-56.9997" transform="matrix(1,0,0.259988,0.16884,-37.4382,119.687)"
					class="st1">
				<path d="M0 120.37 A23.625 23.625 0 0 1 47.25 120.37 A23.625 23.625 0 1 1 0 120.37 Z" class="st2"/>
			</g>
			<path d="M0 120.37 A23.625 23.625 0 0 1 47.25 120.37 A23.625 23.625 0 1 1 0 120.37 Z" class="st3"/>
		</g>
		<g id="shape9-52" v:mID="9" v:groupContext="shape" transform="translate(48.375,-96.75)">
			<title>Circle.9</title>
			<v:userDefs>
				<v:ud v:nameU="visVersion" v:val="VT0(15):26"/>
			</v:userDefs>
			<g id="shadow9-53" v:groupContext="shadow" v:shadowOffsetX="0" v:shadowOffsetY="-0" v:shadowType="2"
					v:shadowScale="0.310001" v:shadowAngle="-56.9997" transform="matrix(1,0,0.259988,0.16884,-37.4382,119.687)"
					class="st1">
				<path d="M0 120.37 A23.625 23.625 0 0 1 47.25 120.37 A23.625 23.625 0 1 1 0 120.37 Z" class="st2"/>
			</g>
			<path d="M0 120.37 A23.625 23.625 0 0 1 47.25 120.37 A23.625 23.625 0 1 1 0 120.37 Z" class="st3"/>
		</g>
		<g id="shape10-58" v:mID="10" v:groupContext="shape" transform="translate(96.75,-96.75)">
			<title>Circle.10</title>
			<v:userDefs>
				<v:ud v:nameU="visVersion" v:val="VT0(15):26"/>
			</v:userDefs>
			<g id="shadow10-59" v:groupContext="shadow" v:shadowOffsetX="0" v:shadowOffsetY="-0" v:shadowType="2"
					v:shadowScale="0.310001" v:shadowAngle="-56.9997" transform="matrix(1,0,0.259988,0.16884,-37.4382,119.687)"
					class="st1">
				<path d="M0 120.37 A23.625 23.625 0 0 1 47.25 120.37 A23.625 23.625 0 1 1 0 120.37 Z" class="st2"/>
			</g>
			<path d="M0 120.37 A23.625 23.625 0 0 1 47.25 120.37 A23.625 23.625 0 1 1 0 120.37 Z" class="st3"/>
		</g>
	</g>
</svg>
